<?xml version="1.0" standalone="no"?><!DOCTYPE svg PUBLIC "-//W3C//DTD SVG 1.1//EN" "http://www.w3.org/Graphics/SVG/1.1/DTD/svg11.dtd"><svg t="1587629725127" class="icon" viewBox="0 0 1024 1024" version="1.1" xmlns="http://www.w3.org/2000/svg" p-id="8636" xmlns:xlink="http://www.w3.org/1999/xlink" width="128" height="128"><defs><style type="text/css"></style></defs><path d="M684.86 646.15l166.85-127.8a8 8 0 0 0 0-12.7l-166.85-127.8A8 8 0 0 0 672 384.2v255.6a8 8 0 0 0 12.86 6.35z" p-id="8637"></path><path d="M150 144m8 0l708 0q8 0 8 8l0 64q0 8-8 8l-708 0q-8 0-8-8l0-64q0-8 8-8Z" p-id="8638"></path><path d="M150 472m8 0l438 0q8 0 8 8l0 64q0 8-8 8l-438 0q-8 0-8-8l0-64q0-8 8-8Z" p-id="8639" fill="#555"></path><path d="M150 800m8 0l708 0q8 0 8 8l0 64q0 8-8 8l-708 0q-8 0-8-8l0-64q0-8 8-8Z" p-id="8640" fill="#555"></path></svg>