<?xml version="1.0" standalone="no"?><!DOCTYPE svg PUBLIC "-//W3C//DTD SVG 1.1//EN" "http://www.w3.org/Graphics/SVG/1.1/DTD/svg11.dtd"><svg t="1587629717749" class="icon" viewBox="0 0 1024 1024" version="1.1" xmlns="http://www.w3.org/2000/svg" p-id="7866" xmlns:xlink="http://www.w3.org/1999/xlink" width="128" height="128"><defs><style type="text/css"></style></defs><path d="M339.14 646.15A8 8 0 0 0 352 639.8V384.2a8 8 0 0 0-12.86-6.35l-166.85 127.8a8 8 0 0 0 0 12.7z" p-id="7867" fill="#555"></path><path d="M150 144m8 0l708 0q8 0 8 8l0 64q0 8-8 8l-708 0q-8 0-8-8l0-64q0-8 8-8Z" p-id="7868" fill="#555"></path><path d="M420 472m8 0l438 0q8 0 8 8l0 64q0 8-8 8l-438 0q-8 0-8-8l0-64q0-8 8-8Z" p-id="7869" fill="#555"></path><path d="M150 800m8 0l708 0q8 0 8 8l0 64q0 8-8 8l-708 0q-8 0-8-8l0-64q0-8 8-8Z" p-id="7870" fill="#555"></path></svg>